<svg viewBox="0 0 202 147" xmlns="http://www.w3.org/2000/svg" xmlns:xlink="http://www.w3.org/1999/xlink" width="202.000000" height="147.000000" fill="none" customFrame="#000000">
	<rect id="logo" width="202.000000" height="147.000000" x="0.000000" y="0.000000" />
	<rect id="Rectangle" width="147.000000" height="147.000000" x="0.000000" y="0.000000" fill="rgb(31,30,30)" />
	<path id="LENNI" d="M26.6335 72.439L39.9655 72.439L39.9655 73L21.9145 73L21.9145 49.999L26.6005 49.999L26.6005 50.032L26.6335 50.032L26.6335 72.439ZM43.9316 73L62.0486 73L62.0486 72.439L48.6176 72.439L48.6176 61.285L59.1116 61.285L59.1116 60.691L48.6176 60.691L48.6176 50.56L62.0486 50.56L62.0486 49.999L43.9316 49.999L43.9316 73ZM70.6993 50.56L70.6993 73L66.0133 73L66.0133 49.999L70.6993 49.999C77.1673 49.999 81.6553 54.19 83.0743 60.328L83.0743 49.999L87.7603 49.999L87.7603 73L83.0743 73L83.0743 64.453C82.4143 51.649 73.5703 50.56 70.6993 50.56ZM97.3893 73L97.3893 50.56C100.26 50.56 109.104 51.649 109.764 64.453L109.764 73L114.45 73L114.45 49.999L109.764 49.999L109.764 60.328C108.345 54.19 103.857 49.999 97.3893 49.999L92.7033 49.999L92.7033 73L97.3893 73ZM124.079 73L119.393 73L119.393 49.999L124.079 49.999L124.079 73Z" fill="rgb(255,255,255)" fill-rule="evenodd" />
	<rect id="Rectangle" width="121.000000" height="42.000000" x="81.000000" y="92.000000" fill="rgb(188.062,51.332,36.0453)" />
	<path id="ART" d="M132.644 103.09L132.644 124L136.904 124L136.904 116.77L141.974 116.77L146.864 123.97L151.724 123.97L146.564 116.32C149.564 115.54 151.844 113.68 151.844 109.51C151.844 104.29 148.034 102.64 143.594 102.64C138.914 102.64 137.564 106.15 136.904 110.05L136.904 103.09L132.644 103.09ZM109.462 124L108.922 124L116.122 103.09L120.652 103.09L128.752 124L124.282 124L120.952 115.45L112.402 115.45L109.462 124ZM162.114 124L162.084 103.6L153.474 103.6L153.474 103.09L174.984 103.09L174.984 103.6L166.374 103.6L166.374 124L162.114 124ZM138.074 107.47C138.884 104.53 140.984 103.33 142.844 103.18C147.314 102.76 147.494 105.61 147.494 109.51C147.494 115.84 144.134 116.26 141.254 116.26L136.904 116.26C136.904 116.26 136.784 112.12 138.074 107.47ZM120.772 114.94L116.422 103.75L112.582 114.94L120.772 114.94Z" fill="rgb(255,255,255)" fill-rule="evenodd" />
</svg>
