<svg xmlns="http://www.w3.org/2000/svg" xmlns:xlink="http://www.w3.org/1999/xlink"><symbol id="arrov" viewBox="0 0 24 24"><g fill="none">
    <path d="M13.3 12.22A4.92 4.92 0 0 0 15 8.5a5 5 0 0 0-10 0 4.92 4.92 0 0 0 1.7 3.72A8 8 0 0 0 2 19.5a1 1 0 1 0 2 0 6 6 0 1 1 12 0 1 1 0 0 0 2 0 8 8 0 0 0-4.7-7.28ZM10 11.5a3 3 0 1 1 0-6 3 3 0 0 1 0 6Zm11.71-2.37a1 1 0 0 0-1.42 0l-2 2-.62-.63a1.002 1.002 0 0 0-1.71.705 1 1 0 0 0 .29.705l1.34 1.34a1 1 0 0 0 1.41 0l2.67-2.67a1 1 0 0 0 .04-1.45Z" fill="currentColor"/>
</g></symbol><symbol id="link"><g fill="none">
    <path d="M40.709 51.51a28.729 28.729 0 0 0 6.806 5.068 28.64 28.64 0 0 0 7.977 2.866c2.8.56 5.621.699 8.463.418a28.62 28.62 0 0 0 8.219-2.067 28.695 28.695 0 0 0 7.268-4.375 28.8 28.8 0 0 0 5.69-6.305 28.9 28.9 0 0 0 3.624-7.694A28.96 28.96 0 0 0 90 31a28.96 28.96 0 0 0-1.244-8.419 28.9 28.9 0 0 0-3.623-7.694 28.8 28.8 0 0 0-5.691-6.305 28.696 28.696 0 0 0-7.268-4.375 28.621 28.621 0 0 0-8.22-2.067 28.6 28.6 0 0 0-8.462.418c-2.8.559-5.46 1.514-7.977 2.866a28.73 28.73 0 0 0-6.806 5.069L39.29 9.083a30.716 30.716 0 0 1 7.278-5.42A30.63 30.63 0 0 1 55.1.597a30.59 30.59 0 0 1 9.05-.446 30.61 30.61 0 0 1 8.79 2.21 30.684 30.684 0 0 1 7.772 4.678 30.788 30.788 0 0 1 6.085 6.741 30.89 30.89 0 0 1 3.873 8.224A30.948 30.948 0 0 1 92 31.002c0 3.065-.443 6.064-1.33 8.997a30.89 30.89 0 0 1-3.872 8.224 30.79 30.79 0 0 1-6.085 6.74 30.685 30.685 0 0 1-7.771 4.678 30.61 30.61 0 0 1-8.79 2.211c-3.04.3-6.056.152-9.051-.446a30.63 30.63 0 0 1-8.532-3.066 30.719 30.719 0 0 1-7.278-5.42l1.418-1.41Zm-1.39 1.41h-.028a.99.99 0 0 1 .003-1.414.99.99 0 0 1 1.415.003v.028l-1.39 1.383Zm1.39-42.454v.028a.99.99 0 0 1-1.415.003.99.99 0 0 1-.003-1.414h.029l1.389 1.383Z" fill="currentColor"/>
    <path d="M5 31.002h60M58 24.002l7 7-7 7" stroke="currentColor" stroke-linecap="round" stroke-linejoin="round" stroke-width="2"/>
</g></symbol><symbol id="log-in" viewBox="0 0 24 24"><g fill="none">
    <path d="m10 17 5-5-5-5" stroke="currentColor" stroke-linecap="round" stroke-linejoin="round" stroke-width="2"/>
    <path d="M15 12H3M15 3h4a2 2 0 0 1 2 2v14a2 2 0 0 1-2 2h-4" stroke="#1F1E1E" stroke-linecap="round" stroke-linejoin="round" stroke-width="2"/>
</g></symbol></svg>