<svg viewBox="0 0 92 62.0029" xmlns="http://www.w3.org/2000/svg" width="92.000000" height="62.002930" fill="none" customFrame="#000000">
	
	<path d="M50.2914 9.49243C48.2722 7.46481 46.0035 5.77515 43.4852 4.42347C40.9671 3.07189 38.3079 2.11643 35.5076 1.55708C32.7074 0.997755 29.8866 0.8586 27.0453 1.13962C24.2039 1.42064 21.4643 2.10975 18.8264 3.20694C16.1884 4.3042 13.7658 5.76236 11.5585 7.58141C9.35104 9.40061 7.454 11.5024 5.8674 13.8869C4.28068 16.2715 3.07277 18.8361 2.24369 21.5806C1.41456 24.3253 1 27.1318 1 30C1 32.8682 1.41456 35.6747 2.24369 38.4194C3.07277 41.1639 4.28068 43.7285 5.8674 46.1131C7.454 48.4976 9.35103 50.5994 11.5585 52.4186C13.7658 54.2376 16.1884 55.6958 18.8265 56.7931C21.4643 57.8902 24.2039 58.5794 27.0453 58.8604C29.8866 59.1414 32.7073 59.0022 35.5076 58.4429C38.3079 57.8836 40.9671 56.9281 43.4852 55.5765C46.0035 54.2248 48.2722 52.5352 50.2914 50.5076L51.7086 51.9188C49.5497 54.0868 47.1238 55.8934 44.4311 57.3387C41.7381 58.7841 38.8942 59.806 35.8993 60.4042C32.9043 61.0024 29.8874 61.1512 26.8484 60.8507C23.8095 60.5501 20.8795 59.8131 18.0584 58.6397C15.2374 57.4663 12.6468 55.9071 10.2866 53.962C7.92651 52.0171 5.89843 49.7701 4.20233 47.2211C2.50633 44.6722 1.21527 41.9311 0.329138 38.9977C-0.556953 36.0645 -0.999999 33.0652 -1 30C-1 26.9348 -0.556955 23.9355 0.329136 21.0023C1.21526 18.0689 2.50633 15.3278 4.20233 12.7789C5.89845 10.2299 7.92653 7.98292 10.2866 6.03799C12.6468 4.09291 15.2374 2.53368 18.0583 1.36031C20.8795 0.186882 23.8095 -0.550113 26.8484 -0.850673C29.8874 -1.15124 32.9043 -1.0024 35.8993 -0.404176C38.8942 0.194037 41.7381 1.21585 44.4311 2.66127C47.1238 4.1066 49.5497 5.91323 51.7086 8.08117L50.2914 9.49243ZM51.6803 8.08112L51.7086 8.08117C52.1037 8.47797 52.1024 9.10023 51.7056 9.49538C51.3088 9.89054 50.6866 9.88924 50.2914 9.49243L50.2915 9.46415L51.6803 8.08112ZM50.2915 50.5358L50.2914 50.5076C50.6866 50.1108 51.3088 50.1095 51.7056 50.5046C52.1024 50.8998 52.1037 51.522 51.7086 51.9188L51.6803 51.9189L50.2915 50.5358Z" fill="currentColor" fill-rule="nonzero" transform="matrix(-1,-8.74228e-08,8.74228e-08,-1,91,61.0015)" />
	<path d="M5 31.0015L65 31.0015" stroke="currentColor" stroke-linecap="round" stroke-linejoin="round" stroke-width="2.000000" />
	<path d="M58 24.0015L65 31.0015L58 38.0015" fill-rule="nonzero" stroke="currentColor" stroke-linecap="round" stroke-linejoin="round" stroke-width="2.000000" />
	
</svg>