<svg viewBox="0 0 96 364" xmlns="http://www.w3.org/2000/svg" xmlns:xlink="http://www.w3.org/1999/xlink" width="96.000000" height="364.000000" fill="none" customFrame="#000000">
	<defs>
		<clipPath id="clipPath_0">
			<rect width="87.000000" height="24.000000" x="0.000000" y="0.000000" fill="rgb(255,255,255)" />
		</clipPath>
		<clipPath id="clipPath_1">
			<rect width="24.000000" height="24.000000" x="0.000000" y="0.000000" fill="rgb(255,255,255)" />
		</clipPath>
		<clipPath id="clipPath_2">
			<rect width="24.000000" height="24.000000" x="0.000000" y="0.000000" fill="rgb(255,255,255)" />
		</clipPath>
		<clipPath id="clipPath_3">
			<rect width="24.000000" height="24.000000" x="0.000000" y="0.000000" fill="rgb(255,255,255)" />
		</clipPath>
		<clipPath id="clipPath_4">
			<rect width="87.000000" height="24.000000" x="0.000000" y="34.000000" fill="rgb(255,255,255)" />
		</clipPath>
		<clipPath id="clipPath_5">
			<rect width="24.000000" height="24.000000" x="0.000000" y="34.000000" fill="rgb(255,255,255)" />
		</clipPath>
		<clipPath id="clipPath_6">
			<rect width="24.000000" height="24.000000" x="0.000000" y="34.000000" fill="rgb(255,255,255)" />
		</clipPath>
		<clipPath id="clipPath_7">
			<rect width="24.000000" height="24.000000" x="0.000000" y="34.000000" fill="rgb(255,255,255)" />
		</clipPath>
		<clipPath id="clipPath_8">
			<rect width="24.000000" height="24.000000" x="0.000000" y="34.000000" fill="rgb(255,255,255)" />
		</clipPath>
		<clipPath id="clipPath_9">
			<rect width="87.000000" height="24.000000" x="0.000000" y="68.000000" fill="rgb(255,255,255)" />
		</clipPath>
		<clipPath id="clipPath_10">
			<rect width="24.000000" height="24.000000" x="0.000000" y="68.000000" fill="rgb(255,255,255)" />
		</clipPath>
		<clipPath id="clipPath_11">
			<rect width="24.000000" height="24.000000" x="0.000000" y="68.000000" fill="rgb(255,255,255)" />
		</clipPath>
		<clipPath id="clipPath_12">
			<rect width="24.000000" height="24.000000" x="0.000000" y="68.000000" fill="rgb(255,255,255)" />
		</clipPath>
		<clipPath id="clipPath_13">
			<rect width="24.000000" height="24.000000" x="0.000000" y="68.000000" fill="rgb(255,255,255)" />
		</clipPath>
		<clipPath id="clipPath_14">
			<rect width="87.000000" height="24.000000" x="0.000000" y="102.000000" fill="rgb(255,255,255)" />
		</clipPath>
		<clipPath id="clipPath_15">
			<rect width="24.000000" height="24.000000" x="0.000000" y="102.000000" fill="rgb(255,255,255)" />
		</clipPath>
		<clipPath id="clipPath_16">
			<rect width="24.000000" height="24.000000" x="0.000000" y="102.000000" fill="rgb(255,255,255)" />
		</clipPath>
		<clipPath id="clipPath_17">
			<rect width="24.000000" height="24.000000" x="0.000000" y="102.000000" fill="rgb(255,255,255)" />
		</clipPath>
		<clipPath id="clipPath_18">
			<rect width="24.000000" height="24.000000" x="0.000000" y="102.000000" fill="rgb(255,255,255)" />
		</clipPath>
		<clipPath id="clipPath_19">
			<rect width="87.000000" height="24.000000" x="0.000000" y="136.000000" fill="rgb(255,255,255)" />
		</clipPath>
		<clipPath id="clipPath_20">
			<rect width="24.000000" height="24.000000" x="0.000000" y="136.000000" fill="rgb(255,255,255)" />
		</clipPath>
		<clipPath id="clipPath_21">
			<rect width="24.000000" height="24.000000" x="0.000000" y="136.000000" fill="rgb(255,255,255)" />
		</clipPath>
		<clipPath id="clipPath_22">
			<rect width="24.000000" height="24.000000" x="0.000000" y="136.000000" fill="rgb(255,255,255)" />
		</clipPath>
		<clipPath id="clipPath_23">
			<rect width="24.000000" height="24.000000" x="0.000000" y="136.000000" fill="rgb(255,255,255)" />
		</clipPath>
		<clipPath id="clipPath_24">
			<rect width="87.000000" height="24.000000" x="0.000000" y="170.000000" fill="rgb(255,255,255)" />
		</clipPath>
		<clipPath id="clipPath_25">
			<rect width="24.000000" height="24.000000" x="0.000000" y="170.000000" fill="rgb(255,255,255)" />
		</clipPath>
		<clipPath id="clipPath_26">
			<rect width="24.000000" height="24.000000" x="0.000000" y="170.000000" fill="rgb(255,255,255)" />
		</clipPath>
		<clipPath id="clipPath_27">
			<rect width="24.000000" height="24.000000" x="0.000000" y="170.000000" fill="rgb(255,255,255)" />
		</clipPath>
		<clipPath id="clipPath_28">
			<rect width="24.000000" height="24.000000" x="0.000000" y="170.000000" fill="rgb(255,255,255)" />
		</clipPath>
		<clipPath id="clipPath_29">
			<rect width="87.000000" height="24.000000" x="0.000000" y="204.000000" fill="rgb(255,255,255)" />
		</clipPath>
		<clipPath id="clipPath_30">
			<rect width="24.000000" height="24.000000" x="0.000000" y="204.000000" fill="rgb(255,255,255)" />
		</clipPath>
		<clipPath id="clipPath_31">
			<rect width="24.000000" height="24.000000" x="0.000000" y="204.000000" fill="rgb(255,255,255)" />
		</clipPath>
		<clipPath id="clipPath_32">
			<rect width="24.000000" height="24.000000" x="0.000000" y="204.000000" fill="rgb(255,255,255)" />
		</clipPath>
		<clipPath id="clipPath_33">
			<rect width="87.000000" height="24.000000" x="0.000000" y="238.000000" fill="rgb(255,255,255)" />
		</clipPath>
		<clipPath id="clipPath_34">
			<rect width="24.000000" height="24.000000" x="0.000000" y="238.000000" fill="rgb(255,255,255)" />
		</clipPath>
		<clipPath id="clipPath_35">
			<rect width="24.000000" height="24.000000" x="0.000000" y="238.000000" fill="rgb(255,255,255)" />
		</clipPath>
		<clipPath id="clipPath_36">
			<rect width="24.000000" height="24.000000" x="0.000000" y="238.000000" fill="rgb(255,255,255)" />
		</clipPath>
		<clipPath id="clipPath_37">
			<rect width="24.000000" height="24.000000" x="0.000000" y="238.000000" fill="rgb(255,255,255)" />
		</clipPath>
		<clipPath id="clipPath_38">
			<rect width="87.000000" height="24.000000" x="0.000000" y="272.000000" fill="rgb(255,255,255)" />
		</clipPath>
		<clipPath id="clipPath_39">
			<rect width="24.000000" height="24.000000" x="0.000000" y="272.000000" fill="rgb(255,255,255)" />
		</clipPath>
		<clipPath id="clipPath_40">
			<rect width="24.000000" height="24.000000" x="0.000000" y="272.000000" fill="rgb(255,255,255)" />
		</clipPath>
		<clipPath id="clipPath_41">
			<rect width="24.000000" height="24.000000" x="0.000000" y="272.000000" fill="rgb(255,255,255)" />
		</clipPath>
		<clipPath id="clipPath_42">
			<rect width="24.000000" height="24.000000" x="0.000000" y="272.000000" fill="rgb(255,255,255)" />
		</clipPath>
		<clipPath id="clipPath_43">
			<rect width="96.000000" height="24.000000" x="0.000000" y="306.000000" fill="rgb(255,255,255)" />
		</clipPath>
		<clipPath id="clipPath_44">
			<rect width="24.000000" height="24.000000" x="0.000000" y="306.000000" fill="rgb(255,255,255)" />
		</clipPath>
		<clipPath id="clipPath_45">
			<rect width="24.000000" height="24.000000" x="0.000000" y="306.000000" fill="rgb(255,255,255)" />
		</clipPath>
		<clipPath id="clipPath_46">
			<rect width="24.000000" height="24.000000" x="0.000000" y="306.000000" fill="rgb(255,255,255)" />
		</clipPath>
		<clipPath id="clipPath_47">
			<rect width="96.000000" height="24.000000" x="0.000000" y="340.000000" fill="rgb(255,255,255)" />
		</clipPath>
		<clipPath id="clipPath_48">
			<rect width="24.000000" height="24.000000" x="0.000000" y="340.000000" fill="rgb(255,255,255)" />
		</clipPath>
		<clipPath id="clipPath_49">
			<rect width="24.000000" height="24.000000" x="0.000000" y="340.000000" fill="rgb(255,255,255)" />
		</clipPath>
		<clipPath id="clipPath_50">
			<rect width="24.000000" height="24.000000" x="0.000000" y="340.000000" fill="rgb(255,255,255)" />
		</clipPath>
		<clipPath id="clipPath_51">
			<rect width="24.000000" height="24.000000" x="0.000000" y="340.000000" fill="rgb(255,255,255)" />
		</clipPath>
	</defs>
	<g id="checkbox">
		<g id="Frame 1952" customFrame="url(#clipPath_0)">
			<rect id="Frame 1952" width="87.000000" height="24.000000" x="0.000000" y="0.000000" />
			<g id="checkbox" customFrame="url(#clipPath_1)">
				<rect id="checkbox" width="24.000000" height="24.000000" x="0.000000" y="0.000000" />
				<g id="checkbox" customFrame="url(#clipPath_2)">
					<rect id="checkbox" width="24.000000" height="24.000000" x="0.000000" y="0.000000" />
					<g id="u:check" clip-path="url(#clipPath_3)" customFrame="url(#clipPath_3)">
						<rect id="u:check" width="24.000000" height="24.000000" x="0.000000" y="0.000000" fill="rgb(164.688,20.8811,4.80338)" />
						<path id="Vector" d="M18.71 7.20986C18.617 7.11613 18.5064 7.04174 18.3846 6.99097C18.2627 6.9402 18.132 6.91406 18 6.91406C17.868 6.91406 17.7373 6.9402 17.6154 6.99097C17.4936 7.04174 17.383 7.11613 17.29 7.20986L9.84001 14.6699L6.71001 11.5299C6.61349 11.4366 6.49955 11.3633 6.37469 11.3141C6.24984 11.2649 6.11651 11.2408 5.98233 11.2431C5.84815 11.2454 5.71574 11.2741 5.59266 11.3276C5.46959 11.3811 5.35825 11.4583 5.26501 11.5549C5.17177 11.6514 5.09846 11.7653 5.04925 11.8902C5.00005 12.015 4.97592 12.1484 4.97824 12.2825C4.98056 12.4167 5.00929 12.5491 5.06278 12.6722C5.11628 12.7953 5.19349 12.9066 5.29001 12.9999L9.13001 16.8399C9.22297 16.9336 9.33358 17.008 9.45543 17.0588C9.57729 17.1095 9.708 17.1357 9.84001 17.1357C9.97202 17.1357 10.1027 17.1095 10.2246 17.0588C10.3464 17.008 10.457 16.9336 10.55 16.8399L18.71 8.67986C18.8115 8.58622 18.8925 8.47257 18.9479 8.34607C19.0033 8.21957 19.0319 8.08296 19.0319 7.94486C19.0319 7.80676 19.0033 7.67015 18.9479 7.54365C18.8925 7.41715 18.8115 7.3035 18.71 7.20986Z" fill="rgb(255,255,255)" fill-rule="nonzero" />
					</g>
				</g>
			</g>
			<path id="1 стол" d="M44.6172 18.207L43.3516 18.207L43.3516 10.1133C43.3516 9.80599 43.3516 9.54297 43.3516 9.32422C43.3568 9.10026 43.362 8.89714 43.3672 8.71484C43.3776 8.52734 43.3906 8.33724 43.4062 8.14453C43.2448 8.3112 43.0938 8.45443 42.9531 8.57422C42.8125 8.6888 42.638 8.83203 42.4297 9.00391L41.125 10.0508L40.4453 9.16797L43.5391 6.78516L44.6172 6.78516L44.6172 18.207ZM57.1094 18.3633C56.3385 18.3633 55.6589 18.2044 55.0703 17.8867C54.4818 17.569 54.0234 17.0846 53.6953 16.4336C53.3672 15.7826 53.2031 14.9622 53.2031 13.9727C53.2031 12.9362 53.375 12.0898 53.7188 11.4336C54.0677 10.7721 54.5469 10.2826 55.1562 9.96484C55.7656 9.64714 56.4583 9.48828 57.2344 9.48828C57.6615 9.48828 58.0729 9.53255 58.4688 9.62109C58.8698 9.70443 59.1979 9.8112 59.4531 9.94141L59.0625 11.0273C58.8021 10.9232 58.5 10.8294 58.1562 10.7461C57.8177 10.6628 57.5 10.6211 57.2031 10.6211C56.6094 10.6211 56.1146 10.7487 55.7188 11.0039C55.3281 11.2591 55.0339 11.6341 54.8359 12.1289C54.6432 12.6237 54.5469 13.2331 54.5469 13.957C54.5469 14.6497 54.6406 15.2409 54.8281 15.7305C55.0208 16.2201 55.3047 16.5951 55.6797 16.8555C56.0599 17.1107 56.5339 17.2383 57.1016 17.2383C57.5547 17.2383 57.9635 17.1914 58.3281 17.0977C58.6927 16.9987 59.0234 16.8841 59.3203 16.7539L59.3203 17.9102C59.0339 18.056 58.7135 18.168 58.3594 18.2461C58.0104 18.3242 57.5938 18.3633 57.1094 18.3633ZM67.1875 10.7461L64.3672 10.7461L64.3672 18.207L63.0859 18.207L63.0859 10.7461L60.3047 10.7461L60.3047 9.64453L67.1875 9.64453L67.1875 10.7461ZM76.2656 13.9102C76.2656 14.6133 76.1745 15.2409 75.9922 15.793C75.8099 16.3451 75.5469 16.8112 75.2031 17.1914C74.8594 17.5716 74.4427 17.8633 73.9531 18.0664C73.4688 18.2643 72.9193 18.3633 72.3047 18.3633C71.7318 18.3633 71.2057 18.2643 70.7266 18.0664C70.2526 17.8633 69.8411 17.5716 69.4922 17.1914C69.1484 16.8112 68.8802 16.3451 68.6875 15.793C68.5 15.2409 68.4062 14.6133 68.4062 13.9102C68.4062 12.9727 68.5651 12.1758 68.8828 11.5195C69.2005 10.8581 69.6536 10.3555 70.2422 10.0117C70.8359 9.66276 71.5417 9.48828 72.3594 9.48828C73.1406 9.48828 73.8229 9.66276 74.4062 10.0117C74.9948 10.3607 75.4505 10.8659 75.7734 11.5273C76.1016 12.1836 76.2656 12.9779 76.2656 13.9102ZM69.75 13.9102C69.75 14.5977 69.8411 15.194 70.0234 15.6992C70.2057 16.2044 70.487 16.5951 70.8672 16.8711C71.2474 17.1471 71.737 17.2852 72.3359 17.2852C72.9297 17.2852 73.4167 17.1471 73.7969 16.8711C74.1823 16.5951 74.4661 16.2044 74.6484 15.6992C74.8307 15.194 74.9219 14.5977 74.9219 13.9102C74.9219 13.2279 74.8307 12.6393 74.6484 12.1445C74.4661 11.6445 74.1849 11.2591 73.8047 10.9883C73.4245 10.7174 72.9323 10.582 72.3281 10.582C71.4375 10.582 70.7839 10.8763 70.3672 11.4648C69.9557 12.0534 69.75 12.8685 69.75 13.9102ZM84.9297 18.207L83.6094 18.207L83.6094 10.7305L81.0078 10.7305C80.9036 12.0794 80.7708 13.2357 80.6094 14.1992C80.4531 15.1576 80.2552 15.9414 80.0156 16.5508C79.7812 17.1549 79.4948 17.6003 79.1562 17.8867C78.8229 18.168 78.4245 18.3086 77.9609 18.3086C77.8203 18.3086 77.6875 18.3008 77.5625 18.2852C77.4375 18.2695 77.3307 18.2435 77.2422 18.207L77.2422 17.2227C77.3099 17.2435 77.3802 17.2591 77.4531 17.2695C77.5312 17.2799 77.612 17.2852 77.6953 17.2852C77.9297 17.2852 78.1432 17.1888 78.3359 16.9961C78.5339 16.7982 78.7109 16.5013 78.8672 16.1055C79.0286 15.7096 79.1719 15.2096 79.2969 14.6055C79.4219 13.9961 79.5312 13.2799 79.625 12.457C79.724 11.6289 79.8099 10.6914 79.8828 9.64453L84.9297 9.64453L84.9297 18.207Z" fill="rgb(164.688,20.8811,4.80338)" fill-rule="nonzero" />
		</g>
		<g id="Frame 1953" customFrame="url(#clipPath_4)">
			<rect id="Frame 1953" width="87.000000" height="24.000000" x="0.000000" y="34.000000" />
			<g id="checkbox" customFrame="url(#clipPath_5)">
				<rect id="checkbox" width="24.000000" height="24.000000" x="0.000000" y="34.000000" />
				<g id="checkbox" customFrame="url(#clipPath_6)">
					<rect id="checkbox" width="24.000000" height="24.000000" x="0.000000" y="34.000000" />
					<g id="checkbox" customFrame="url(#clipPath_7)">
						<rect id="checkbox" width="24.000000" height="24.000000" x="0.000000" y="34.000000" />
						<g id="u:check" clip-path="url(#clipPath_8)" customFrame="url(#clipPath_8)">
							<rect id="u:check" width="23.000000" height="23.000000" x="0.500000" y="34.500000" stroke="rgb(31,30,30)" stroke-width="1" />
							<path id="Vector" d="M18.71 41.2099C18.617 41.1161 18.5064 41.0417 18.3846 40.991C18.2627 40.9402 18.132 40.9141 18 40.9141C17.868 40.9141 17.7373 40.9402 17.6154 40.991C17.4936 41.0417 17.383 41.1161 17.29 41.2099L9.84001 48.6699L6.71001 45.5299C6.61349 45.4366 6.49955 45.3633 6.37469 45.3141C6.24984 45.2649 6.11651 45.2408 5.98233 45.2431C5.84815 45.2454 5.71574 45.2741 5.59266 45.3276C5.46959 45.3811 5.35825 45.4583 5.26501 45.5549C5.17177 45.6514 5.09846 45.7653 5.04925 45.8902C5.00005 46.015 4.97592 46.1484 4.97824 46.2825C4.98056 46.4167 5.00929 46.5491 5.06278 46.6722C5.11628 46.7953 5.19349 46.9066 5.29001 46.9999L9.13001 50.8399C9.22297 50.9336 9.33358 51.008 9.45543 51.0588C9.57729 51.1095 9.708 51.1357 9.84001 51.1357C9.97202 51.1357 10.1027 51.1095 10.2246 51.0588C10.3464 51.008 10.457 50.9336 10.55 50.8399L18.71 42.6799C18.8115 42.5862 18.8925 42.4726 18.9479 42.3461C19.0033 42.2196 19.0319 42.083 19.0319 41.9449C19.0319 41.8068 19.0033 41.6702 18.9479 41.5437C18.8925 41.4172 18.8115 41.3035 18.71 41.2099Z" opacity="0" fill="rgb(255,255,255)" fill-rule="nonzero" />
						</g>
					</g>
				</g>
			</g>
			<path id="2 стол" d="M47.2891 52.207L39.7812 52.207L39.7812 51.0898L42.7891 48.0664C43.7057 47.1393 44.3099 46.4779 44.6016 46.082C44.8932 45.6862 45.112 45.3008 45.2578 44.9258C45.4036 44.5508 45.4766 44.1471 45.4766 43.7148C45.4766 43.1055 45.2917 42.6237 44.9219 42.2695C44.5521 41.9102 44.0391 41.7305 43.3828 41.7305C42.9089 41.7305 42.4583 41.8086 42.0312 41.9648C41.6094 42.1211 41.138 42.4049 40.6172 42.8164L39.9297 41.9336C40.9818 41.0586 42.1276 40.6211 43.3672 40.6211C44.4401 40.6211 45.2812 40.8971 45.8906 41.4492C46.5 41.9961 46.8047 42.7331 46.8047 43.6602C46.8047 44.3841 46.6016 45.1003 46.1953 45.8086C45.7891 46.5169 45.0286 47.4128 43.9141 48.4961L41.4141 50.9414L41.4141 51.0039L47.2891 51.0039L47.2891 52.207ZM57.1094 52.3633C55.8698 52.3633 54.9089 51.9831 54.2266 51.2227C53.5495 50.457 53.2109 49.3763 53.2109 47.9805C53.2109 46.5482 53.5547 45.4414 54.2422 44.6602C54.9349 43.8789 55.9193 43.4883 57.1953 43.4883C57.6068 43.4883 58.0182 43.5326 58.4297 43.6211C58.8411 43.7096 59.1641 43.8138 59.3984 43.9336L59 45.0352C58.7135 44.9206 58.401 44.8268 58.0625 44.7539C57.724 44.6758 57.4245 44.6367 57.1641 44.6367C55.4245 44.6367 54.5547 45.7461 54.5547 47.9648C54.5547 49.0169 54.7656 49.8242 55.1875 50.3867C55.6146 50.9492 56.2448 51.2305 57.0781 51.2305C57.7917 51.2305 58.5234 51.0768 59.2734 50.7695L59.2734 51.918C58.7005 52.2148 57.9792 52.3633 57.1094 52.3633ZM67.0859 44.7539L64.3047 44.7539L64.3047 52.207L63.0078 52.207L63.0078 44.7539L60.2578 44.7539L60.2578 43.6445L67.0859 43.6445L67.0859 44.7539ZM76.1719 47.918C76.1719 49.3138 75.8203 50.4049 75.1172 51.1914C74.4141 51.9727 73.4427 52.3633 72.2031 52.3633C71.4375 52.3633 70.7578 52.1836 70.1641 51.8242C69.5703 51.4648 69.112 50.9492 68.7891 50.2773C68.4661 49.6055 68.3047 48.819 68.3047 47.918C68.3047 46.5221 68.6536 45.4362 69.3516 44.6602C70.0495 43.8789 71.0182 43.4883 72.2578 43.4883C73.4557 43.4883 74.4062 43.8867 75.1094 44.6836C75.8177 45.4805 76.1719 46.5586 76.1719 47.918ZM69.6484 47.918C69.6484 49.0117 69.8672 49.8451 70.3047 50.418C70.7422 50.9909 71.3854 51.2773 72.2344 51.2773C73.0833 51.2773 73.7266 50.9935 74.1641 50.4258C74.6068 49.8529 74.8281 49.0169 74.8281 47.918C74.8281 46.8294 74.6068 46.0039 74.1641 45.4414C73.7266 44.8737 73.0781 44.5898 72.2188 44.5898C71.3698 44.5898 70.7292 44.8685 70.2969 45.4258C69.8646 45.9831 69.6484 46.8138 69.6484 47.918ZM84.8359 52.207L83.5234 52.207L83.5234 44.7539L80.9531 44.7539C80.8125 46.6081 80.6172 48.0794 80.3672 49.168C80.1172 50.2565 79.7917 51.0534 79.3906 51.5586C78.9948 52.0638 78.4896 52.3164 77.875 52.3164C77.5938 52.3164 77.3698 52.2852 77.2031 52.2227L77.2031 51.2617C77.3177 51.293 77.4479 51.3086 77.5938 51.3086C78.1927 51.3086 78.6693 50.6758 79.0234 49.4102C79.3776 48.1445 79.6458 46.2227 79.8281 43.6445L84.8359 43.6445L84.8359 52.207Z" fill="rgb(31,30,30)" fill-rule="nonzero" />
		</g>
		<g id="Frame 1955" customFrame="url(#clipPath_9)">
			<rect id="Frame 1955" width="87.000000" height="24.000000" x="0.000000" y="68.000000" />
			<g id="checkbox" customFrame="url(#clipPath_10)">
				<rect id="checkbox" width="24.000000" height="24.000000" x="0.000000" y="68.000000" />
				<g id="checkbox" customFrame="url(#clipPath_11)">
					<rect id="checkbox" width="24.000000" height="24.000000" x="0.000000" y="68.000000" />
					<g id="checkbox" customFrame="url(#clipPath_12)">
						<rect id="checkbox" width="24.000000" height="24.000000" x="0.000000" y="68.000000" />
						<g id="u:check" clip-path="url(#clipPath_13)" customFrame="url(#clipPath_13)">
							<rect id="u:check" width="23.000000" height="23.000000" x="0.500000" y="68.500000" stroke="rgb(31,30,30)" stroke-width="1" />
							<path id="Vector" d="M18.71 75.2099C18.617 75.1161 18.5064 75.0417 18.3846 74.991C18.2627 74.9402 18.132 74.9141 18 74.9141C17.868 74.9141 17.7373 74.9402 17.6154 74.991C17.4936 75.0417 17.383 75.1161 17.29 75.2099L9.84001 82.6699L6.71001 79.5299C6.61349 79.4366 6.49955 79.3633 6.37469 79.3141C6.24984 79.2649 6.11651 79.2408 5.98233 79.2431C5.84815 79.2454 5.71574 79.2741 5.59266 79.3276C5.46959 79.3811 5.35825 79.4583 5.26501 79.5549C5.17177 79.6514 5.09846 79.7653 5.04925 79.8902C5.00005 80.015 4.97592 80.1484 4.97824 80.2825C4.98056 80.4167 5.00929 80.5491 5.06278 80.6722C5.11628 80.7953 5.19349 80.9066 5.29001 80.9999L9.13001 84.8399C9.22297 84.9336 9.33358 85.008 9.45543 85.0588C9.57729 85.1095 9.708 85.1357 9.84001 85.1357C9.97202 85.1357 10.1027 85.1095 10.2246 85.0588C10.3464 85.008 10.457 84.9336 10.55 84.8399L18.71 76.6799C18.8115 76.5862 18.8925 76.4726 18.9479 76.3461C19.0033 76.2196 19.0319 76.083 19.0319 75.9449C19.0319 75.8068 19.0033 75.6702 18.9479 75.5437C18.8925 75.4172 18.8115 75.3035 18.71 75.2099Z" opacity="0" fill="rgb(255,255,255)" fill-rule="nonzero" />
						</g>
					</g>
				</g>
			</g>
			<path id="3 стол" d="M46.8594 77.4727C46.8594 78.2018 46.6536 78.7982 46.2422 79.2617C45.8359 79.7253 45.2578 80.0352 44.5078 80.1914L44.5078 80.2539C45.4245 80.3685 46.1042 80.6602 46.5469 81.1289C46.9896 81.5977 47.2109 82.2122 47.2109 82.9727C47.2109 84.0612 46.8333 84.8997 46.0781 85.4883C45.3229 86.0716 44.25 86.3633 42.8594 86.3633C42.2552 86.3633 41.7005 86.3164 41.1953 86.2227C40.6953 86.1341 40.2083 85.9753 39.7344 85.7461L39.7344 84.5117C40.2292 84.7565 40.7552 84.944 41.3125 85.0742C41.875 85.1992 42.4062 85.2617 42.9062 85.2617C44.8802 85.2617 45.8672 84.4883 45.8672 82.9414C45.8672 81.556 44.7786 80.8633 42.6016 80.8633L41.4766 80.8633L41.4766 79.7461L42.6172 79.7461C43.5078 79.7461 44.2135 79.5508 44.7344 79.1602C45.2552 78.7643 45.5156 78.2174 45.5156 77.5195C45.5156 76.9622 45.3229 76.5247 44.9375 76.207C44.5573 75.8893 44.0391 75.7305 43.3828 75.7305C42.8828 75.7305 42.4115 75.7982 41.9688 75.9336C41.526 76.069 41.0208 76.319 40.4531 76.6836L39.7969 75.8086C40.2656 75.4388 40.8047 75.1497 41.4141 74.9414C42.0286 74.7279 42.6745 74.6211 43.3516 74.6211C44.4609 74.6211 45.3229 74.8763 45.9375 75.3867C46.5521 75.8919 46.8594 76.5872 46.8594 77.4727ZM57.1094 86.3633C55.8698 86.3633 54.9089 85.9831 54.2266 85.2227C53.5495 84.457 53.2109 83.3763 53.2109 81.9805C53.2109 80.5482 53.5547 79.4414 54.2422 78.6602C54.9349 77.8789 55.9193 77.4883 57.1953 77.4883C57.6068 77.4883 58.0182 77.5326 58.4297 77.6211C58.8411 77.7096 59.1641 77.8138 59.3984 77.9336L59 79.0352C58.7135 78.9206 58.401 78.8268 58.0625 78.7539C57.724 78.6758 57.4245 78.6367 57.1641 78.6367C55.4245 78.6367 54.5547 79.7461 54.5547 81.9648C54.5547 83.0169 54.7656 83.8242 55.1875 84.3867C55.6146 84.9492 56.2448 85.2305 57.0781 85.2305C57.7917 85.2305 58.5234 85.0768 59.2734 84.7695L59.2734 85.918C58.7005 86.2148 57.9792 86.3633 57.1094 86.3633ZM67.0859 78.7539L64.3047 78.7539L64.3047 86.207L63.0078 86.207L63.0078 78.7539L60.2578 78.7539L60.2578 77.6445L67.0859 77.6445L67.0859 78.7539ZM76.1719 81.918C76.1719 83.3138 75.8203 84.4049 75.1172 85.1914C74.4141 85.9727 73.4427 86.3633 72.2031 86.3633C71.4375 86.3633 70.7578 86.1836 70.1641 85.8242C69.5703 85.4648 69.112 84.9492 68.7891 84.2773C68.4661 83.6055 68.3047 82.819 68.3047 81.918C68.3047 80.5221 68.6536 79.4362 69.3516 78.6602C70.0495 77.8789 71.0182 77.4883 72.2578 77.4883C73.4557 77.4883 74.4062 77.8867 75.1094 78.6836C75.8177 79.4805 76.1719 80.5586 76.1719 81.918ZM69.6484 81.918C69.6484 83.0117 69.8672 83.8451 70.3047 84.418C70.7422 84.9909 71.3854 85.2773 72.2344 85.2773C73.0833 85.2773 73.7266 84.9935 74.1641 84.4258C74.6068 83.8529 74.8281 83.0169 74.8281 81.918C74.8281 80.8294 74.6068 80.0039 74.1641 79.4414C73.7266 78.8737 73.0781 78.5898 72.2188 78.5898C71.3698 78.5898 70.7292 78.8685 70.2969 79.4258C69.8646 79.9831 69.6484 80.8138 69.6484 81.918ZM84.8359 86.207L83.5234 86.207L83.5234 78.7539L80.9531 78.7539C80.8125 80.6081 80.6172 82.0794 80.3672 83.168C80.1172 84.2565 79.7917 85.0534 79.3906 85.5586C78.9948 86.0638 78.4896 86.3164 77.875 86.3164C77.5938 86.3164 77.3698 86.2852 77.2031 86.2227L77.2031 85.2617C77.3177 85.293 77.4479 85.3086 77.5938 85.3086C78.1927 85.3086 78.6693 84.6758 79.0234 83.4102C79.3776 82.1445 79.6458 80.2227 79.8281 77.6445L84.8359 77.6445L84.8359 86.207Z" fill="rgb(31,30,30)" fill-rule="nonzero" />
		</g>
		<g id="Frame 1956" customFrame="url(#clipPath_14)">
			<rect id="Frame 1956" width="87.000000" height="24.000000" x="0.000000" y="102.000000" />
			<g id="checkbox" customFrame="url(#clipPath_15)">
				<rect id="checkbox" width="24.000000" height="24.000000" x="0.000000" y="102.000000" />
				<g id="checkbox" customFrame="url(#clipPath_16)">
					<rect id="checkbox" width="24.000000" height="24.000000" x="0.000000" y="102.000000" />
					<g id="checkbox" customFrame="url(#clipPath_17)">
						<rect id="checkbox" width="24.000000" height="24.000000" x="0.000000" y="102.000000" />
						<g id="u:check" clip-path="url(#clipPath_18)" customFrame="url(#clipPath_18)">
							<rect id="u:check" width="23.000000" height="23.000000" x="0.500000" y="102.500000" stroke="rgb(164.688,20.8811,4.80338)" stroke-width="1" />
							<path id="Vector" d="M18.71 109.21C18.617 109.116 18.5064 109.042 18.3846 108.991C18.2627 108.94 18.132 108.914 18 108.914C17.868 108.914 17.7373 108.94 17.6154 108.991C17.4936 109.042 17.383 109.116 17.29 109.21L9.84001 116.67L6.71001 113.53C6.61349 113.437 6.49955 113.363 6.37469 113.314C6.24984 113.265 6.11651 113.241 5.98233 113.243C5.84815 113.245 5.71574 113.274 5.59266 113.328C5.46959 113.381 5.35825 113.458 5.26501 113.555C5.17177 113.651 5.09846 113.765 5.04925 113.89C5.00005 114.015 4.97592 114.148 4.97824 114.283C4.98056 114.417 5.00929 114.549 5.06278 114.672C5.11628 114.795 5.19349 114.907 5.29001 115L9.13001 118.84C9.22297 118.934 9.33358 119.008 9.45543 119.059C9.57729 119.11 9.708 119.136 9.84001 119.136C9.97202 119.136 10.1027 119.11 10.2246 119.059C10.3464 119.008 10.457 118.934 10.55 118.84L18.71 110.68C18.8115 110.586 18.8925 110.473 18.9479 110.346C19.0033 110.22 19.0319 110.083 19.0319 109.945C19.0319 109.807 19.0033 109.67 18.9479 109.544C18.8925 109.417 18.8115 109.304 18.71 109.21Z" opacity="0" fill="rgb(255,255,255)" fill-rule="nonzero" />
						</g>
					</g>
				</g>
			</g>
			<path id="4 стол" d="M47.8281 117.582L46.1328 117.582L46.1328 120.207L44.8906 120.207L44.8906 117.582L39.3359 117.582L39.3359 116.449L44.7578 108.723L46.1328 108.723L46.1328 116.402L47.8281 116.402L47.8281 117.582ZM44.8906 116.402L44.8906 112.605C44.8906 111.861 44.9167 111.02 44.9688 110.082L44.9062 110.082C44.6562 110.582 44.4219 110.996 44.2031 111.324L40.6328 116.402L44.8906 116.402ZM57.1094 120.363C55.8698 120.363 54.9089 119.983 54.2266 119.223C53.5495 118.457 53.2109 117.376 53.2109 115.98C53.2109 114.548 53.5547 113.441 54.2422 112.66C54.9349 111.879 55.9193 111.488 57.1953 111.488C57.6068 111.488 58.0182 111.533 58.4297 111.621C58.8411 111.71 59.1641 111.814 59.3984 111.934L59 113.035C58.7135 112.921 58.401 112.827 58.0625 112.754C57.724 112.676 57.4245 112.637 57.1641 112.637C55.4245 112.637 54.5547 113.746 54.5547 115.965C54.5547 117.017 54.7656 117.824 55.1875 118.387C55.6146 118.949 56.2448 119.23 57.0781 119.23C57.7917 119.23 58.5234 119.077 59.2734 118.77L59.2734 119.918C58.7005 120.215 57.9792 120.363 57.1094 120.363ZM67.0859 112.754L64.3047 112.754L64.3047 120.207L63.0078 120.207L63.0078 112.754L60.2578 112.754L60.2578 111.645L67.0859 111.645L67.0859 112.754ZM76.1719 115.918C76.1719 117.314 75.8203 118.405 75.1172 119.191C74.4141 119.973 73.4427 120.363 72.2031 120.363C71.4375 120.363 70.7578 120.184 70.1641 119.824C69.5703 119.465 69.112 118.949 68.7891 118.277C68.4661 117.605 68.3047 116.819 68.3047 115.918C68.3047 114.522 68.6536 113.436 69.3516 112.66C70.0495 111.879 71.0182 111.488 72.2578 111.488C73.4557 111.488 74.4062 111.887 75.1094 112.684C75.8177 113.48 76.1719 114.559 76.1719 115.918ZM69.6484 115.918C69.6484 117.012 69.8672 117.845 70.3047 118.418C70.7422 118.991 71.3854 119.277 72.2344 119.277C73.0833 119.277 73.7266 118.993 74.1641 118.426C74.6068 117.853 74.8281 117.017 74.8281 115.918C74.8281 114.829 74.6068 114.004 74.1641 113.441C73.7266 112.874 73.0781 112.59 72.2188 112.59C71.3698 112.59 70.7292 112.868 70.2969 113.426C69.8646 113.983 69.6484 114.814 69.6484 115.918ZM84.8359 120.207L83.5234 120.207L83.5234 112.754L80.9531 112.754C80.8125 114.608 80.6172 116.079 80.3672 117.168C80.1172 118.257 79.7917 119.053 79.3906 119.559C78.9948 120.064 78.4896 120.316 77.875 120.316C77.5938 120.316 77.3698 120.285 77.2031 120.223L77.2031 119.262C77.3177 119.293 77.4479 119.309 77.5938 119.309C78.1927 119.309 78.6693 118.676 79.0234 117.41C79.3776 116.145 79.6458 114.223 79.8281 111.645L84.8359 111.645L84.8359 120.207Z" fill="rgb(188.062,51.332,36.0453)" fill-rule="nonzero" />
		</g>
		<g id="Frame 1957" opacity="0.5" customFrame="url(#clipPath_19)">
			<rect id="Frame 1957" width="87.000000" height="24.000000" x="0.000000" y="136.000000" />
			<g id="checkbox" customFrame="url(#clipPath_20)">
				<rect id="checkbox" width="24.000000" height="24.000000" x="0.000000" y="136.000000" />
				<g id="checkbox" customFrame="url(#clipPath_21)">
					<rect id="checkbox" width="24.000000" height="24.000000" x="0.000000" y="136.000000" />
					<g id="checkbox" customFrame="url(#clipPath_22)">
						<rect id="checkbox" width="24.000000" height="24.000000" x="0.000000" y="136.000000" />
						<g id="u:check" clip-path="url(#clipPath_23)" customFrame="url(#clipPath_23)">
							<rect id="u:check" width="23.000000" height="23.000000" x="0.500000" y="136.500000" stroke="rgb(31,30,30)" stroke-width="1" />
							<path id="Vector" d="M18.71 143.21C18.617 143.116 18.5064 143.042 18.3846 142.991C18.2627 142.94 18.132 142.914 18 142.914C17.868 142.914 17.7373 142.94 17.6154 142.991C17.4936 143.042 17.383 143.116 17.29 143.21L9.84001 150.67L6.71001 147.53C6.61349 147.437 6.49955 147.363 6.37469 147.314C6.24984 147.265 6.11651 147.241 5.98233 147.243C5.84815 147.245 5.71574 147.274 5.59266 147.328C5.46959 147.381 5.35825 147.458 5.26501 147.555C5.17177 147.651 5.09846 147.765 5.04925 147.89C5.00005 148.015 4.97592 148.148 4.97824 148.283C4.98056 148.417 5.00929 148.549 5.06278 148.672C5.11628 148.795 5.19349 148.907 5.29001 149L9.13001 152.84C9.22297 152.934 9.33358 153.008 9.45543 153.059C9.57729 153.11 9.708 153.136 9.84001 153.136C9.97202 153.136 10.1027 153.11 10.2246 153.059C10.3464 153.008 10.457 152.934 10.55 152.84L18.71 144.68C18.8115 144.586 18.8925 144.473 18.9479 144.346C19.0033 144.22 19.0319 144.083 19.0319 143.945C19.0319 143.807 19.0033 143.67 18.9479 143.544C18.8925 143.417 18.8115 143.303 18.71 143.21Z" opacity="0" fill="rgb(255,255,255)" fill-rule="nonzero" />
						</g>
					</g>
				</g>
			</g>
			<path id="5 стол" d="M43.3516 147.23C44.5547 147.23 45.5 147.53 46.1875 148.129C46.8802 148.723 47.2266 149.538 47.2266 150.574C47.2266 151.757 46.849 152.684 46.0938 153.355C45.3438 154.027 44.3073 154.363 42.9844 154.363C41.6979 154.363 40.7161 154.158 40.0391 153.746L40.0391 152.496C40.4036 152.73 40.8568 152.915 41.3984 153.051C41.9401 153.181 42.474 153.246 43 153.246C43.9167 153.246 44.6276 153.03 45.1328 152.598C45.6432 152.165 45.8984 151.54 45.8984 150.723C45.8984 149.129 44.9219 148.332 42.9688 148.332C42.474 148.332 41.8125 148.408 40.9844 148.559L40.3125 148.129L40.7422 142.785L46.4219 142.785L46.4219 143.98L41.8516 143.98L41.5625 147.41C42.1615 147.29 42.7578 147.23 43.3516 147.23ZM57.1094 154.363C55.8698 154.363 54.9089 153.983 54.2266 153.223C53.5495 152.457 53.2109 151.376 53.2109 149.98C53.2109 148.548 53.5547 147.441 54.2422 146.66C54.9349 145.879 55.9193 145.488 57.1953 145.488C57.6068 145.488 58.0182 145.533 58.4297 145.621C58.8411 145.71 59.1641 145.814 59.3984 145.934L59 147.035C58.7135 146.921 58.401 146.827 58.0625 146.754C57.724 146.676 57.4245 146.637 57.1641 146.637C55.4245 146.637 54.5547 147.746 54.5547 149.965C54.5547 151.017 54.7656 151.824 55.1875 152.387C55.6146 152.949 56.2448 153.23 57.0781 153.23C57.7917 153.23 58.5234 153.077 59.2734 152.77L59.2734 153.918C58.7005 154.215 57.9792 154.363 57.1094 154.363ZM67.0859 146.754L64.3047 146.754L64.3047 154.207L63.0078 154.207L63.0078 146.754L60.2578 146.754L60.2578 145.645L67.0859 145.645L67.0859 146.754ZM76.1719 149.918C76.1719 151.314 75.8203 152.405 75.1172 153.191C74.4141 153.973 73.4427 154.363 72.2031 154.363C71.4375 154.363 70.7578 154.184 70.1641 153.824C69.5703 153.465 69.112 152.949 68.7891 152.277C68.4661 151.605 68.3047 150.819 68.3047 149.918C68.3047 148.522 68.6536 147.436 69.3516 146.66C70.0495 145.879 71.0182 145.488 72.2578 145.488C73.4557 145.488 74.4062 145.887 75.1094 146.684C75.8177 147.48 76.1719 148.559 76.1719 149.918ZM69.6484 149.918C69.6484 151.012 69.8672 151.845 70.3047 152.418C70.7422 152.991 71.3854 153.277 72.2344 153.277C73.0833 153.277 73.7266 152.993 74.1641 152.426C74.6068 151.853 74.8281 151.017 74.8281 149.918C74.8281 148.829 74.6068 148.004 74.1641 147.441C73.7266 146.874 73.0781 146.59 72.2188 146.59C71.3698 146.59 70.7292 146.868 70.2969 147.426C69.8646 147.983 69.6484 148.814 69.6484 149.918ZM84.8359 154.207L83.5234 154.207L83.5234 146.754L80.9531 146.754C80.8125 148.608 80.6172 150.079 80.3672 151.168C80.1172 152.257 79.7917 153.053 79.3906 153.559C78.9948 154.064 78.4896 154.316 77.875 154.316C77.5938 154.316 77.3698 154.285 77.2031 154.223L77.2031 153.262C77.3177 153.293 77.4479 153.309 77.5938 153.309C78.1927 153.309 78.6693 152.676 79.0234 151.41C79.3776 150.145 79.6458 148.223 79.8281 145.645L84.8359 145.645L84.8359 154.207Z" fill="rgb(31,30,30)" fill-rule="nonzero" />
		</g>
		<g id="Frame 1958" customFrame="url(#clipPath_24)">
			<rect id="Frame 1958" width="87.000000" height="24.000000" x="0.000000" y="170.000000" />
			<g id="checkbox" customFrame="url(#clipPath_25)">
				<rect id="checkbox" width="24.000000" height="24.000000" x="0.000000" y="170.000000" />
				<g id="checkbox" customFrame="url(#clipPath_26)">
					<rect id="checkbox" width="24.000000" height="24.000000" x="0.000000" y="170.000000" />
					<g id="checkbox" customFrame="url(#clipPath_27)">
						<rect id="checkbox" width="24.000000" height="24.000000" x="0.000000" y="170.000000" />
						<g id="u:check" clip-path="url(#clipPath_28)" customFrame="url(#clipPath_28)">
							<rect id="u:check" width="23.000000" height="23.000000" x="0.500000" y="170.500000" stroke="rgb(31,30,30)" stroke-width="1" />
							<path id="Vector" d="M18.71 177.21C18.617 177.116 18.5064 177.042 18.3846 176.991C18.2627 176.94 18.132 176.914 18 176.914C17.868 176.914 17.7373 176.94 17.6154 176.991C17.4936 177.042 17.383 177.116 17.29 177.21L9.84001 184.67L6.71001 181.53C6.61349 181.437 6.49955 181.363 6.37469 181.314C6.24984 181.265 6.11651 181.241 5.98233 181.243C5.84815 181.245 5.71574 181.274 5.59266 181.328C5.46959 181.381 5.35825 181.458 5.26501 181.555C5.17177 181.651 5.09846 181.765 5.04925 181.89C5.00005 182.015 4.97592 182.148 4.97824 182.283C4.98056 182.417 5.00929 182.549 5.06278 182.672C5.11628 182.795 5.19349 182.907 5.29001 183L9.13001 186.84C9.22297 186.934 9.33358 187.008 9.45543 187.059C9.57729 187.11 9.708 187.136 9.84001 187.136C9.97202 187.136 10.1027 187.11 10.2246 187.059C10.3464 187.008 10.457 186.934 10.55 186.84L18.71 178.68C18.8115 178.586 18.8925 178.473 18.9479 178.346C19.0033 178.22 19.0319 178.083 19.0319 177.945C19.0319 177.807 19.0033 177.67 18.9479 177.544C18.8925 177.417 18.8115 177.303 18.71 177.21Z" opacity="0" fill="rgb(255,255,255)" fill-rule="nonzero" />
						</g>
					</g>
				</g>
			</g>
			<path id="6 стол" d="M39.9141 183.324C39.9141 181.079 40.349 179.402 41.2188 178.293C42.0938 177.178 43.3854 176.621 45.0938 176.621C45.6823 176.621 46.1458 176.671 46.4844 176.77L46.4844 177.887C46.0833 177.757 45.625 177.691 45.1094 177.691C43.8854 177.691 42.9505 178.074 42.3047 178.84C41.6589 179.6 41.3047 180.798 41.2422 182.434L41.3359 182.434C41.9089 181.538 42.8151 181.09 44.0547 181.09C45.0807 181.09 45.888 181.4 46.4766 182.02C47.0703 182.639 47.3672 183.48 47.3672 184.543C47.3672 185.73 47.0417 186.665 46.3906 187.348C45.7448 188.025 44.8698 188.363 43.7656 188.363C42.5833 188.363 41.6458 187.921 40.9531 187.035C40.2604 186.145 39.9141 184.908 39.9141 183.324ZM43.75 187.262C44.4896 187.262 45.0625 187.03 45.4688 186.566C45.8802 186.098 46.0859 185.423 46.0859 184.543C46.0859 183.788 45.8958 183.194 45.5156 182.762C45.1354 182.329 44.5677 182.113 43.8125 182.113C43.3438 182.113 42.9141 182.21 42.5234 182.402C42.1328 182.595 41.8203 182.861 41.5859 183.199C41.3568 183.538 41.2422 183.889 41.2422 184.254C41.2422 184.79 41.3464 185.29 41.5547 185.754C41.763 186.217 42.0573 186.585 42.4375 186.855C42.8229 187.126 43.2604 187.262 43.75 187.262ZM57.1094 188.363C55.8698 188.363 54.9089 187.983 54.2266 187.223C53.5495 186.457 53.2109 185.376 53.2109 183.98C53.2109 182.548 53.5547 181.441 54.2422 180.66C54.9349 179.879 55.9193 179.488 57.1953 179.488C57.6068 179.488 58.0182 179.533 58.4297 179.621C58.8411 179.71 59.1641 179.814 59.3984 179.934L59 181.035C58.7135 180.921 58.401 180.827 58.0625 180.754C57.724 180.676 57.4245 180.637 57.1641 180.637C55.4245 180.637 54.5547 181.746 54.5547 183.965C54.5547 185.017 54.7656 185.824 55.1875 186.387C55.6146 186.949 56.2448 187.23 57.0781 187.23C57.7917 187.23 58.5234 187.077 59.2734 186.77L59.2734 187.918C58.7005 188.215 57.9792 188.363 57.1094 188.363ZM67.0859 180.754L64.3047 180.754L64.3047 188.207L63.0078 188.207L63.0078 180.754L60.2578 180.754L60.2578 179.645L67.0859 179.645L67.0859 180.754ZM76.1719 183.918C76.1719 185.314 75.8203 186.405 75.1172 187.191C74.4141 187.973 73.4427 188.363 72.2031 188.363C71.4375 188.363 70.7578 188.184 70.1641 187.824C69.5703 187.465 69.112 186.949 68.7891 186.277C68.4661 185.605 68.3047 184.819 68.3047 183.918C68.3047 182.522 68.6536 181.436 69.3516 180.66C70.0495 179.879 71.0182 179.488 72.2578 179.488C73.4557 179.488 74.4062 179.887 75.1094 180.684C75.8177 181.48 76.1719 182.559 76.1719 183.918ZM69.6484 183.918C69.6484 185.012 69.8672 185.845 70.3047 186.418C70.7422 186.991 71.3854 187.277 72.2344 187.277C73.0833 187.277 73.7266 186.993 74.1641 186.426C74.6068 185.853 74.8281 185.017 74.8281 183.918C74.8281 182.829 74.6068 182.004 74.1641 181.441C73.7266 180.874 73.0781 180.59 72.2188 180.59C71.3698 180.59 70.7292 180.868 70.2969 181.426C69.8646 181.983 69.6484 182.814 69.6484 183.918ZM84.8359 188.207L83.5234 188.207L83.5234 180.754L80.9531 180.754C80.8125 182.608 80.6172 184.079 80.3672 185.168C80.1172 186.257 79.7917 187.053 79.3906 187.559C78.9948 188.064 78.4896 188.316 77.875 188.316C77.5938 188.316 77.3698 188.285 77.2031 188.223L77.2031 187.262C77.3177 187.293 77.4479 187.309 77.5938 187.309C78.1927 187.309 78.6693 186.676 79.0234 185.41C79.3776 184.145 79.6458 182.223 79.8281 179.645L84.8359 179.645L84.8359 188.207Z" fill="rgb(31,30,30)" fill-rule="nonzero" />
		</g>
		<g id="Frame 1959" customFrame="url(#clipPath_29)">
			<rect id="Frame 1959" width="87.000000" height="24.000000" x="0.000000" y="204.000000" />
			<g id="checkbox" customFrame="url(#clipPath_30)">
				<rect id="checkbox" width="24.000000" height="24.000000" x="0.000000" y="204.000000" />
				<g id="checkbox" customFrame="url(#clipPath_31)">
					<rect id="checkbox" width="24.000000" height="24.000000" x="0.000000" y="204.000000" />
					<g id="u:check" clip-path="url(#clipPath_32)" customFrame="url(#clipPath_32)">
						<rect id="u:check" width="24.000000" height="24.000000" x="0.000000" y="204.000000" fill="rgb(164.688,20.8811,4.80338)" />
						<path id="Vector" d="M18.71 211.21C18.617 211.116 18.5064 211.042 18.3846 210.991C18.2627 210.94 18.132 210.914 18 210.914C17.868 210.914 17.7373 210.94 17.6154 210.991C17.4936 211.042 17.383 211.116 17.29 211.21L9.84001 218.67L6.71001 215.53C6.61349 215.437 6.49955 215.363 6.37469 215.314C6.24984 215.265 6.11651 215.241 5.98233 215.243C5.84815 215.245 5.71574 215.274 5.59266 215.328C5.46959 215.381 5.35825 215.458 5.26501 215.555C5.17177 215.651 5.09846 215.765 5.04925 215.89C5.00005 216.015 4.97592 216.148 4.97824 216.283C4.98056 216.417 5.00929 216.549 5.06278 216.672C5.11628 216.795 5.19349 216.907 5.29001 217L9.13001 220.84C9.22297 220.934 9.33358 221.008 9.45543 221.059C9.57729 221.11 9.708 221.136 9.84001 221.136C9.97202 221.136 10.1027 221.11 10.2246 221.059C10.3464 221.008 10.457 220.934 10.55 220.84L18.71 212.68C18.8115 212.586 18.8925 212.473 18.9479 212.346C19.0033 212.22 19.0319 212.083 19.0319 211.945C19.0319 211.807 19.0033 211.67 18.9479 211.544C18.8925 211.417 18.8115 211.303 18.71 211.21Z" fill="rgb(255,255,255)" fill-rule="nonzero" />
					</g>
				</g>
			</g>
			<path id="7 стол" d="M41.2656 222.207L45.9531 211.973L39.7266 211.973L39.7266 210.785L47.3438 210.785L47.3438 211.785L42.6875 222.207L41.2656 222.207ZM57.1094 222.363C56.3385 222.363 55.6589 222.204 55.0703 221.887C54.4818 221.569 54.0234 221.085 53.6953 220.434C53.3672 219.783 53.2031 218.962 53.2031 217.973C53.2031 216.936 53.375 216.09 53.7188 215.434C54.0677 214.772 54.5469 214.283 55.1562 213.965C55.7656 213.647 56.4583 213.488 57.2344 213.488C57.6615 213.488 58.0729 213.533 58.4688 213.621C58.8698 213.704 59.1979 213.811 59.4531 213.941L59.0625 215.027C58.8021 214.923 58.5 214.829 58.1562 214.746C57.8177 214.663 57.5 214.621 57.2031 214.621C56.6094 214.621 56.1146 214.749 55.7188 215.004C55.3281 215.259 55.0339 215.634 54.8359 216.129C54.6432 216.624 54.5469 217.233 54.5469 217.957C54.5469 218.65 54.6406 219.241 54.8281 219.73C55.0208 220.22 55.3047 220.595 55.6797 220.855C56.0599 221.111 56.5339 221.238 57.1016 221.238C57.5547 221.238 57.9635 221.191 58.3281 221.098C58.6927 220.999 59.0234 220.884 59.3203 220.754L59.3203 221.91C59.0339 222.056 58.7135 222.168 58.3594 222.246C58.0104 222.324 57.5938 222.363 57.1094 222.363ZM67.1875 214.746L64.3672 214.746L64.3672 222.207L63.0859 222.207L63.0859 214.746L60.3047 214.746L60.3047 213.645L67.1875 213.645L67.1875 214.746ZM76.2656 217.91C76.2656 218.613 76.1745 219.241 75.9922 219.793C75.8099 220.345 75.5469 220.811 75.2031 221.191C74.8594 221.572 74.4427 221.863 73.9531 222.066C73.4688 222.264 72.9193 222.363 72.3047 222.363C71.7318 222.363 71.2057 222.264 70.7266 222.066C70.2526 221.863 69.8411 221.572 69.4922 221.191C69.1484 220.811 68.8802 220.345 68.6875 219.793C68.5 219.241 68.4062 218.613 68.4062 217.91C68.4062 216.973 68.5651 216.176 68.8828 215.52C69.2005 214.858 69.6536 214.355 70.2422 214.012C70.8359 213.663 71.5417 213.488 72.3594 213.488C73.1406 213.488 73.8229 213.663 74.4062 214.012C74.9948 214.361 75.4505 214.866 75.7734 215.527C76.1016 216.184 76.2656 216.978 76.2656 217.91ZM69.75 217.91C69.75 218.598 69.8411 219.194 70.0234 219.699C70.2057 220.204 70.487 220.595 70.8672 220.871C71.2474 221.147 71.737 221.285 72.3359 221.285C72.9297 221.285 73.4167 221.147 73.7969 220.871C74.1823 220.595 74.4661 220.204 74.6484 219.699C74.8307 219.194 74.9219 218.598 74.9219 217.91C74.9219 217.228 74.8307 216.639 74.6484 216.145C74.4661 215.645 74.1849 215.259 73.8047 214.988C73.4245 214.717 72.9323 214.582 72.3281 214.582C71.4375 214.582 70.7839 214.876 70.3672 215.465C69.9557 216.053 69.75 216.868 69.75 217.91ZM84.9297 222.207L83.6094 222.207L83.6094 214.73L81.0078 214.73C80.9036 216.079 80.7708 217.236 80.6094 218.199C80.4531 219.158 80.2552 219.941 80.0156 220.551C79.7812 221.155 79.4948 221.6 79.1562 221.887C78.8229 222.168 78.4245 222.309 77.9609 222.309C77.8203 222.309 77.6875 222.301 77.5625 222.285C77.4375 222.27 77.3307 222.243 77.2422 222.207L77.2422 221.223C77.3099 221.243 77.3802 221.259 77.4531 221.27C77.5312 221.28 77.612 221.285 77.6953 221.285C77.9297 221.285 78.1432 221.189 78.3359 220.996C78.5339 220.798 78.7109 220.501 78.8672 220.105C79.0286 219.71 79.1719 219.21 79.2969 218.605C79.4219 217.996 79.5312 217.28 79.625 216.457C79.724 215.629 79.8099 214.691 79.8828 213.645L84.9297 213.645L84.9297 222.207Z" fill="rgb(164.688,20.8811,4.80338)" fill-rule="nonzero" />
		</g>
		<g id="Frame 1960" customFrame="url(#clipPath_33)">
			<rect id="Frame 1960" width="87.000000" height="24.000000" x="0.000000" y="238.000000" />
			<g id="checkbox" customFrame="url(#clipPath_34)">
				<rect id="checkbox" width="24.000000" height="24.000000" x="0.000000" y="238.000000" />
				<g id="checkbox" customFrame="url(#clipPath_35)">
					<rect id="checkbox" width="24.000000" height="24.000000" x="0.000000" y="238.000000" />
					<g id="checkbox" customFrame="url(#clipPath_36)">
						<rect id="checkbox" width="24.000000" height="24.000000" x="0.000000" y="238.000000" />
						<g id="u:check" clip-path="url(#clipPath_37)" customFrame="url(#clipPath_37)">
							<rect id="u:check" width="23.000000" height="23.000000" x="0.500000" y="238.500000" stroke="rgb(164.688,20.8811,4.80338)" stroke-width="1" />
							<path id="Vector" d="M18.71 245.21C18.617 245.116 18.5064 245.042 18.3846 244.991C18.2627 244.94 18.132 244.914 18 244.914C17.868 244.914 17.7373 244.94 17.6154 244.991C17.4936 245.042 17.383 245.116 17.29 245.21L9.84001 252.67L6.71001 249.53C6.61349 249.437 6.49955 249.363 6.37469 249.314C6.24984 249.265 6.11651 249.241 5.98233 249.243C5.84815 249.245 5.71574 249.274 5.59266 249.328C5.46959 249.381 5.35825 249.458 5.26501 249.555C5.17177 249.651 5.09846 249.765 5.04925 249.89C5.00005 250.015 4.97592 250.148 4.97824 250.283C4.98056 250.417 5.00929 250.549 5.06278 250.672C5.11628 250.795 5.19349 250.907 5.29001 251L9.13001 254.84C9.22297 254.934 9.33358 255.008 9.45543 255.059C9.57729 255.11 9.708 255.136 9.84001 255.136C9.97202 255.136 10.1027 255.11 10.2246 255.059C10.3464 255.008 10.457 254.934 10.55 254.84L18.71 246.68C18.8115 246.586 18.8925 246.473 18.9479 246.346C19.0033 246.22 19.0319 246.083 19.0319 245.945C19.0319 245.807 19.0033 245.67 18.9479 245.544C18.8925 245.417 18.8115 245.303 18.71 245.21Z" opacity="0" fill="rgb(255,255,255)" fill-rule="nonzero" />
						</g>
					</g>
				</g>
			</g>
			<path id="8 стол" d="M43.5625 244.621C44.6042 244.621 45.4297 244.863 46.0391 245.348C46.6484 245.832 46.9531 246.501 46.9531 247.355C46.9531 247.918 46.7786 248.431 46.4297 248.895C46.0807 249.358 45.5234 249.78 44.7578 250.16C45.6849 250.603 46.3438 251.069 46.7344 251.559C47.125 252.043 47.3203 252.605 47.3203 253.246C47.3203 254.194 46.9896 254.952 46.3281 255.52C45.6667 256.082 44.7604 256.363 43.6094 256.363C42.3906 256.363 41.4531 256.098 40.7969 255.566C40.1406 255.03 39.8125 254.272 39.8125 253.293C39.8125 251.986 40.6094 250.967 42.2031 250.238C41.4844 249.832 40.9688 249.395 40.6562 248.926C40.3438 248.452 40.1875 247.923 40.1875 247.34C40.1875 246.512 40.4922 245.853 41.1016 245.363C41.7161 244.868 42.5365 244.621 43.5625 244.621ZM41.0938 253.324C41.0938 253.949 41.3099 254.436 41.7422 254.785C42.1797 255.134 42.7917 255.309 43.5781 255.309C44.3542 255.309 44.9583 255.126 45.3906 254.762C45.8229 254.397 46.0391 253.897 46.0391 253.262C46.0391 252.757 45.8359 252.309 45.4297 251.918C45.0234 251.522 44.3151 251.139 43.3047 250.77C42.5286 251.103 41.9661 251.473 41.6172 251.879C41.2682 252.28 41.0938 252.762 41.0938 253.324ZM43.5469 245.676C42.8958 245.676 42.3854 245.832 42.0156 246.145C41.6458 246.457 41.4609 246.874 41.4609 247.395C41.4609 247.874 41.6146 248.285 41.9219 248.629C42.2292 248.973 42.7969 249.316 43.625 249.66C44.3698 249.348 44.8958 249.012 45.2031 248.652C45.5156 248.293 45.6719 247.874 45.6719 247.395C45.6719 246.868 45.4818 246.452 45.1016 246.145C44.7266 245.832 44.2083 245.676 43.5469 245.676ZM57.1094 256.363C55.8698 256.363 54.9089 255.983 54.2266 255.223C53.5495 254.457 53.2109 253.376 53.2109 251.98C53.2109 250.548 53.5547 249.441 54.2422 248.66C54.9349 247.879 55.9193 247.488 57.1953 247.488C57.6068 247.488 58.0182 247.533 58.4297 247.621C58.8411 247.71 59.1641 247.814 59.3984 247.934L59 249.035C58.7135 248.921 58.401 248.827 58.0625 248.754C57.724 248.676 57.4245 248.637 57.1641 248.637C55.4245 248.637 54.5547 249.746 54.5547 251.965C54.5547 253.017 54.7656 253.824 55.1875 254.387C55.6146 254.949 56.2448 255.23 57.0781 255.23C57.7917 255.23 58.5234 255.077 59.2734 254.77L59.2734 255.918C58.7005 256.215 57.9792 256.363 57.1094 256.363ZM67.0859 248.754L64.3047 248.754L64.3047 256.207L63.0078 256.207L63.0078 248.754L60.2578 248.754L60.2578 247.645L67.0859 247.645L67.0859 248.754ZM76.1719 251.918C76.1719 253.314 75.8203 254.405 75.1172 255.191C74.4141 255.973 73.4427 256.363 72.2031 256.363C71.4375 256.363 70.7578 256.184 70.1641 255.824C69.5703 255.465 69.112 254.949 68.7891 254.277C68.4661 253.605 68.3047 252.819 68.3047 251.918C68.3047 250.522 68.6536 249.436 69.3516 248.66C70.0495 247.879 71.0182 247.488 72.2578 247.488C73.4557 247.488 74.4062 247.887 75.1094 248.684C75.8177 249.48 76.1719 250.559 76.1719 251.918ZM69.6484 251.918C69.6484 253.012 69.8672 253.845 70.3047 254.418C70.7422 254.991 71.3854 255.277 72.2344 255.277C73.0833 255.277 73.7266 254.993 74.1641 254.426C74.6068 253.853 74.8281 253.017 74.8281 251.918C74.8281 250.829 74.6068 250.004 74.1641 249.441C73.7266 248.874 73.0781 248.59 72.2188 248.59C71.3698 248.59 70.7292 248.868 70.2969 249.426C69.8646 249.983 69.6484 250.814 69.6484 251.918ZM84.8359 256.207L83.5234 256.207L83.5234 248.754L80.9531 248.754C80.8125 250.608 80.6172 252.079 80.3672 253.168C80.1172 254.257 79.7917 255.053 79.3906 255.559C78.9948 256.064 78.4896 256.316 77.875 256.316C77.5938 256.316 77.3698 256.285 77.2031 256.223L77.2031 255.262C77.3177 255.293 77.4479 255.309 77.5938 255.309C78.1927 255.309 78.6693 254.676 79.0234 253.41C79.3776 252.145 79.6458 250.223 79.8281 247.645L84.8359 247.645L84.8359 256.207Z" fill="rgb(188.062,51.332,36.0453)" fill-rule="nonzero" />
		</g>
		<g id="Frame 1961" customFrame="url(#clipPath_38)">
			<rect id="Frame 1961" width="87.000000" height="24.000000" x="0.000000" y="272.000000" />
			<g id="checkbox" customFrame="url(#clipPath_39)">
				<rect id="checkbox" width="24.000000" height="24.000000" x="0.000000" y="272.000000" />
				<g id="checkbox" customFrame="url(#clipPath_40)">
					<rect id="checkbox" width="24.000000" height="24.000000" x="0.000000" y="272.000000" />
					<g id="checkbox" customFrame="url(#clipPath_41)">
						<rect id="checkbox" width="24.000000" height="24.000000" x="0.000000" y="272.000000" />
						<g id="u:check" clip-path="url(#clipPath_42)" customFrame="url(#clipPath_42)">
							<rect id="u:check" width="23.000000" height="23.000000" x="0.500000" y="272.500000" stroke="rgb(164.688,20.8811,4.80338)" stroke-width="1" />
							<path id="Vector" d="M18.71 279.21C18.617 279.116 18.5064 279.042 18.3846 278.991C18.2627 278.94 18.132 278.914 18 278.914C17.868 278.914 17.7373 278.94 17.6154 278.991C17.4936 279.042 17.383 279.116 17.29 279.21L9.84001 286.67L6.71001 283.53C6.61349 283.437 6.49955 283.363 6.37469 283.314C6.24984 283.265 6.11651 283.241 5.98233 283.243C5.84815 283.245 5.71574 283.274 5.59266 283.328C5.46959 283.381 5.35825 283.458 5.26501 283.555C5.17177 283.651 5.09846 283.765 5.04925 283.89C5.00005 284.015 4.97592 284.148 4.97824 284.283C4.98056 284.417 5.00929 284.549 5.06278 284.672C5.11628 284.795 5.19349 284.907 5.29001 285L9.13001 288.84C9.22297 288.934 9.33358 289.008 9.45543 289.059C9.57729 289.11 9.708 289.136 9.84001 289.136C9.97202 289.136 10.1027 289.11 10.2246 289.059C10.3464 289.008 10.457 288.934 10.55 288.84L18.71 280.68C18.8115 280.586 18.8925 280.473 18.9479 280.346C19.0033 280.22 19.0319 280.083 19.0319 279.945C19.0319 279.807 19.0033 279.67 18.9479 279.544C18.8925 279.417 18.8115 279.303 18.71 279.21Z" opacity="0" fill="rgb(255,255,255)" fill-rule="nonzero" />
						</g>
					</g>
				</g>
			</g>
			<path id="9 стол" d="M47.2891 283.66C47.2891 288.129 45.5599 290.363 42.1016 290.363C41.4974 290.363 41.0182 290.311 40.6641 290.207L40.6641 289.09C41.0807 289.225 41.5547 289.293 42.0859 289.293C43.3359 289.293 44.2786 288.908 44.9141 288.137C45.5547 287.361 45.9036 286.173 45.9609 284.574L45.8672 284.574C45.5807 285.007 45.2005 285.337 44.7266 285.566C44.2526 285.79 43.7188 285.902 43.125 285.902C42.1146 285.902 41.3125 285.6 40.7188 284.996C40.125 284.392 39.8281 283.548 39.8281 282.465C39.8281 281.277 40.1589 280.34 40.8203 279.652C41.487 278.965 42.362 278.621 43.4453 278.621C44.2214 278.621 44.8984 278.822 45.4766 279.223C46.0599 279.618 46.5078 280.199 46.8203 280.965C47.1328 281.725 47.2891 282.624 47.2891 283.66ZM43.4453 279.73C42.7005 279.73 42.125 279.97 41.7188 280.449C41.3125 280.928 41.1094 281.595 41.1094 282.449C41.1094 283.199 41.2969 283.79 41.6719 284.223C42.0469 284.65 42.6172 284.863 43.3828 284.863C43.8568 284.863 44.2917 284.767 44.6875 284.574C45.0885 284.382 45.4036 284.118 45.6328 283.785C45.862 283.452 45.9766 283.103 45.9766 282.738C45.9766 282.191 45.8698 281.686 45.6562 281.223C45.4427 280.759 45.1432 280.395 44.7578 280.129C44.3776 279.863 43.9401 279.73 43.4453 279.73ZM57.1094 290.363C55.8698 290.363 54.9089 289.983 54.2266 289.223C53.5495 288.457 53.2109 287.376 53.2109 285.98C53.2109 284.548 53.5547 283.441 54.2422 282.66C54.9349 281.879 55.9193 281.488 57.1953 281.488C57.6068 281.488 58.0182 281.533 58.4297 281.621C58.8411 281.71 59.1641 281.814 59.3984 281.934L59 283.035C58.7135 282.921 58.401 282.827 58.0625 282.754C57.724 282.676 57.4245 282.637 57.1641 282.637C55.4245 282.637 54.5547 283.746 54.5547 285.965C54.5547 287.017 54.7656 287.824 55.1875 288.387C55.6146 288.949 56.2448 289.23 57.0781 289.23C57.7917 289.23 58.5234 289.077 59.2734 288.77L59.2734 289.918C58.7005 290.215 57.9792 290.363 57.1094 290.363ZM67.0859 282.754L64.3047 282.754L64.3047 290.207L63.0078 290.207L63.0078 282.754L60.2578 282.754L60.2578 281.645L67.0859 281.645L67.0859 282.754ZM76.1719 285.918C76.1719 287.314 75.8203 288.405 75.1172 289.191C74.4141 289.973 73.4427 290.363 72.2031 290.363C71.4375 290.363 70.7578 290.184 70.1641 289.824C69.5703 289.465 69.112 288.949 68.7891 288.277C68.4661 287.605 68.3047 286.819 68.3047 285.918C68.3047 284.522 68.6536 283.436 69.3516 282.66C70.0495 281.879 71.0182 281.488 72.2578 281.488C73.4557 281.488 74.4062 281.887 75.1094 282.684C75.8177 283.48 76.1719 284.559 76.1719 285.918ZM69.6484 285.918C69.6484 287.012 69.8672 287.845 70.3047 288.418C70.7422 288.991 71.3854 289.277 72.2344 289.277C73.0833 289.277 73.7266 288.993 74.1641 288.426C74.6068 287.853 74.8281 287.017 74.8281 285.918C74.8281 284.829 74.6068 284.004 74.1641 283.441C73.7266 282.874 73.0781 282.59 72.2188 282.59C71.3698 282.59 70.7292 282.868 70.2969 283.426C69.8646 283.983 69.6484 284.814 69.6484 285.918ZM84.8359 290.207L83.5234 290.207L83.5234 282.754L80.9531 282.754C80.8125 284.608 80.6172 286.079 80.3672 287.168C80.1172 288.257 79.7917 289.053 79.3906 289.559C78.9948 290.064 78.4896 290.316 77.875 290.316C77.5938 290.316 77.3698 290.285 77.2031 290.223L77.2031 289.262C77.3177 289.293 77.4479 289.309 77.5938 289.309C78.1927 289.309 78.6693 288.676 79.0234 287.41C79.3776 286.145 79.6458 284.223 79.8281 281.645L84.8359 281.645L84.8359 290.207Z" fill="rgb(188.062,51.332,36.0453)" fill-rule="nonzero" />
		</g>
		<g id="Frame 1962" customFrame="url(#clipPath_43)">
			<rect id="Frame 1962" width="96.000000" height="24.000000" x="0.000000" y="306.000000" />
			<g id="checkbox" customFrame="url(#clipPath_44)">
				<rect id="checkbox" width="24.000000" height="24.000000" x="0.000000" y="306.000000" />
				<g id="checkbox" customFrame="url(#clipPath_45)">
					<rect id="checkbox" width="24.000000" height="24.000000" x="0.000000" y="306.000000" />
					<g id="u:check" clip-path="url(#clipPath_46)" customFrame="url(#clipPath_46)">
						<rect id="u:check" width="24.000000" height="24.000000" x="0.000000" y="306.000000" fill="rgb(31,30,30)" />
						<path id="Vector" d="M18.71 313.21C18.617 313.116 18.5064 313.042 18.3846 312.991C18.2627 312.94 18.132 312.914 18 312.914C17.868 312.914 17.7373 312.94 17.6154 312.991C17.4936 313.042 17.383 313.116 17.29 313.21L9.84001 320.67L6.71001 317.53C6.61349 317.437 6.49955 317.363 6.37469 317.314C6.24984 317.265 6.11651 317.241 5.98233 317.243C5.84815 317.245 5.71574 317.274 5.59266 317.328C5.46959 317.381 5.35825 317.458 5.26501 317.555C5.17177 317.651 5.09846 317.765 5.04925 317.89C5.00005 318.015 4.97592 318.148 4.97824 318.283C4.98056 318.417 5.00929 318.549 5.06278 318.672C5.11628 318.795 5.19349 318.907 5.29001 319L9.13001 322.84C9.22297 322.934 9.33358 323.008 9.45543 323.059C9.57729 323.11 9.708 323.136 9.84001 323.136C9.97202 323.136 10.1027 323.11 10.2246 323.059C10.3464 323.008 10.457 322.934 10.55 322.84L18.71 314.68C18.8115 314.586 18.8925 314.473 18.9479 314.346C19.0033 314.22 19.0319 314.083 19.0319 313.945C19.0319 313.807 19.0033 313.67 18.9479 313.544C18.8925 313.417 18.8115 313.303 18.71 313.21Z" fill="rgb(255,255,255)" fill-rule="nonzero" />
					</g>
				</g>
			</g>
			<path id="10 стол" d="M44.5859 324.207L43.3203 324.207L43.3203 316.066C43.3203 315.389 43.3411 314.749 43.3828 314.145C43.2734 314.254 43.151 314.368 43.0156 314.488C42.8802 314.608 42.2604 315.116 41.1562 316.012L40.4688 315.121L43.4922 312.785L44.5859 312.785L44.5859 324.207ZM56.5078 318.48C56.5078 320.454 56.1953 321.928 55.5703 322.902C54.9505 323.876 54 324.363 52.7188 324.363C51.4896 324.363 50.5547 323.866 49.9141 322.871C49.2734 321.871 48.9531 320.408 48.9531 318.48C48.9531 316.491 49.263 315.014 49.8828 314.051C50.5026 313.087 51.4479 312.605 52.7188 312.605C53.9583 312.605 54.8984 313.108 55.5391 314.113C56.1849 315.118 56.5078 316.574 56.5078 318.48ZM50.2656 318.48C50.2656 320.142 50.4609 321.353 50.8516 322.113C51.2422 322.868 51.8646 323.246 52.7188 323.246C53.5833 323.246 54.2083 322.863 54.5938 322.098C54.9844 321.327 55.1797 320.121 55.1797 318.48C55.1797 316.84 54.9844 315.639 54.5938 314.879C54.2083 314.113 53.5833 313.73 52.7188 313.73C51.8646 313.73 51.2422 314.108 50.8516 314.863C50.4609 315.613 50.2656 316.819 50.2656 318.48ZM66.2656 324.363C65.026 324.363 64.0651 323.983 63.3828 323.223C62.7057 322.457 62.3672 321.376 62.3672 319.98C62.3672 318.548 62.7109 317.441 63.3984 316.66C64.0911 315.879 65.0755 315.488 66.3516 315.488C66.763 315.488 67.1745 315.533 67.5859 315.621C67.9974 315.71 68.3203 315.814 68.5547 315.934L68.1562 317.035C67.8698 316.921 67.5573 316.827 67.2188 316.754C66.8802 316.676 66.5807 316.637 66.3203 316.637C64.5807 316.637 63.7109 317.746 63.7109 319.965C63.7109 321.017 63.9219 321.824 64.3438 322.387C64.7708 322.949 65.401 323.23 66.2344 323.23C66.9479 323.23 67.6797 323.077 68.4297 322.77L68.4297 323.918C67.8568 324.215 67.1354 324.363 66.2656 324.363ZM76.2422 316.754L73.4609 316.754L73.4609 324.207L72.1641 324.207L72.1641 316.754L69.4141 316.754L69.4141 315.645L76.2422 315.645L76.2422 316.754ZM85.3281 319.918C85.3281 321.314 84.9766 322.405 84.2734 323.191C83.5703 323.973 82.599 324.363 81.3594 324.363C80.5938 324.363 79.9141 324.184 79.3203 323.824C78.7266 323.465 78.2682 322.949 77.9453 322.277C77.6224 321.605 77.4609 320.819 77.4609 319.918C77.4609 318.522 77.8099 317.436 78.5078 316.66C79.2057 315.879 80.1745 315.488 81.4141 315.488C82.612 315.488 83.5625 315.887 84.2656 316.684C84.974 317.48 85.3281 318.559 85.3281 319.918ZM78.8047 319.918C78.8047 321.012 79.0234 321.845 79.4609 322.418C79.8984 322.991 80.5417 323.277 81.3906 323.277C82.2396 323.277 82.8828 322.993 83.3203 322.426C83.763 321.853 83.9844 321.017 83.9844 319.918C83.9844 318.829 83.763 318.004 83.3203 317.441C82.8828 316.874 82.2344 316.59 81.375 316.59C80.526 316.59 79.8854 316.868 79.4531 317.426C79.0208 317.983 78.8047 318.814 78.8047 319.918ZM93.9922 324.207L92.6797 324.207L92.6797 316.754L90.1094 316.754C89.9688 318.608 89.7734 320.079 89.5234 321.168C89.2734 322.257 88.9479 323.053 88.5469 323.559C88.151 324.064 87.6458 324.316 87.0312 324.316C86.75 324.316 86.526 324.285 86.3594 324.223L86.3594 323.262C86.474 323.293 86.6042 323.309 86.75 323.309C87.349 323.309 87.8255 322.676 88.1797 321.41C88.5339 320.145 88.8021 318.223 88.9844 315.645L93.9922 315.645L93.9922 324.207Z" fill="rgb(31,30,30)" fill-rule="nonzero" />
		</g>
		<g id="Frame 1963" customFrame="url(#clipPath_47)">
			<rect id="Frame 1963" width="96.000000" height="24.000000" x="0.000000" y="340.000000" />
			<g id="checkbox" customFrame="url(#clipPath_48)">
				<rect id="checkbox" width="24.000000" height="24.000000" x="0.000000" y="340.000000" />
				<g id="checkbox" customFrame="url(#clipPath_49)">
					<rect id="checkbox" width="24.000000" height="24.000000" x="0.000000" y="340.000000" />
					<g id="checkbox" customFrame="url(#clipPath_50)">
						<rect id="checkbox" width="24.000000" height="24.000000" x="0.000000" y="340.000000" />
						<g id="u:check" clip-path="url(#clipPath_51)" customFrame="url(#clipPath_51)">
							<rect id="u:check" width="23.000000" height="23.000000" x="0.500000" y="340.500000" stroke="rgb(31,30,30)" stroke-width="1" />
							<path id="Vector" d="M18.71 347.21C18.617 347.116 18.5064 347.042 18.3846 346.991C18.2627 346.94 18.132 346.914 18 346.914C17.868 346.914 17.7373 346.94 17.6154 346.991C17.4936 347.042 17.383 347.116 17.29 347.21L9.84001 354.67L6.71001 351.53C6.61349 351.437 6.49955 351.363 6.37469 351.314C6.24984 351.265 6.11651 351.241 5.98233 351.243C5.84815 351.245 5.71574 351.274 5.59266 351.328C5.46959 351.381 5.35825 351.458 5.26501 351.555C5.17177 351.651 5.09846 351.765 5.04925 351.89C5.00005 352.015 4.97592 352.148 4.97824 352.283C4.98056 352.417 5.00929 352.549 5.06278 352.672C5.11628 352.795 5.19349 352.907 5.29001 353L9.13001 356.84C9.22297 356.934 9.33358 357.008 9.45543 357.059C9.57729 357.11 9.708 357.136 9.84001 357.136C9.97202 357.136 10.1027 357.11 10.2246 357.059C10.3464 357.008 10.457 356.934 10.55 356.84L18.71 348.68C18.8115 348.586 18.8925 348.473 18.9479 348.346C19.0033 348.22 19.0319 348.083 19.0319 347.945C19.0319 347.807 19.0033 347.67 18.9479 347.544C18.8925 347.417 18.8115 347.303 18.71 347.21Z" opacity="0" fill="rgb(255,255,255)" fill-rule="nonzero" />
						</g>
					</g>
				</g>
			</g>
			<path id="11 стол" d="M44.5859 358.207L43.3203 358.207L43.3203 350.066C43.3203 349.389 43.3411 348.749 43.3828 348.145C43.2734 348.254 43.151 348.368 43.0156 348.488C42.8802 348.608 42.2604 349.116 41.1562 350.012L40.4688 349.121L43.4922 346.785L44.5859 346.785L44.5859 358.207ZM53.7422 358.207L52.4766 358.207L52.4766 350.066C52.4766 349.389 52.4974 348.749 52.5391 348.145C52.4297 348.254 52.3073 348.368 52.1719 348.488C52.0365 348.608 51.4167 349.116 50.3125 350.012L49.625 349.121L52.6484 346.785L53.7422 346.785L53.7422 358.207ZM66.2656 358.363C65.026 358.363 64.0651 357.983 63.3828 357.223C62.7057 356.457 62.3672 355.376 62.3672 353.98C62.3672 352.548 62.7109 351.441 63.3984 350.66C64.0911 349.879 65.0755 349.488 66.3516 349.488C66.763 349.488 67.1745 349.533 67.5859 349.621C67.9974 349.71 68.3203 349.814 68.5547 349.934L68.1562 351.035C67.8698 350.921 67.5573 350.827 67.2188 350.754C66.8802 350.676 66.5807 350.637 66.3203 350.637C64.5807 350.637 63.7109 351.746 63.7109 353.965C63.7109 355.017 63.9219 355.824 64.3438 356.387C64.7708 356.949 65.401 357.23 66.2344 357.23C66.9479 357.23 67.6797 357.077 68.4297 356.77L68.4297 357.918C67.8568 358.215 67.1354 358.363 66.2656 358.363ZM76.2422 350.754L73.4609 350.754L73.4609 358.207L72.1641 358.207L72.1641 350.754L69.4141 350.754L69.4141 349.645L76.2422 349.645L76.2422 350.754ZM85.3281 353.918C85.3281 355.314 84.9766 356.405 84.2734 357.191C83.5703 357.973 82.599 358.363 81.3594 358.363C80.5938 358.363 79.9141 358.184 79.3203 357.824C78.7266 357.465 78.2682 356.949 77.9453 356.277C77.6224 355.605 77.4609 354.819 77.4609 353.918C77.4609 352.522 77.8099 351.436 78.5078 350.66C79.2057 349.879 80.1745 349.488 81.4141 349.488C82.612 349.488 83.5625 349.887 84.2656 350.684C84.974 351.48 85.3281 352.559 85.3281 353.918ZM78.8047 353.918C78.8047 355.012 79.0234 355.845 79.4609 356.418C79.8984 356.991 80.5417 357.277 81.3906 357.277C82.2396 357.277 82.8828 356.993 83.3203 356.426C83.763 355.853 83.9844 355.017 83.9844 353.918C83.9844 352.829 83.763 352.004 83.3203 351.441C82.8828 350.874 82.2344 350.59 81.375 350.59C80.526 350.59 79.8854 350.868 79.4531 351.426C79.0208 351.983 78.8047 352.814 78.8047 353.918ZM93.9922 358.207L92.6797 358.207L92.6797 350.754L90.1094 350.754C89.9688 352.608 89.7734 354.079 89.5234 355.168C89.2734 356.257 88.9479 357.053 88.5469 357.559C88.151 358.064 87.6458 358.316 87.0312 358.316C86.75 358.316 86.526 358.285 86.3594 358.223L86.3594 357.262C86.474 357.293 86.6042 357.309 86.75 357.309C87.349 357.309 87.8255 356.676 88.1797 355.41C88.5339 354.145 88.8021 352.223 88.9844 349.645L93.9922 349.645L93.9922 358.207Z" fill="rgb(31,30,30)" fill-rule="nonzero" />
		</g>
	</g>
</svg>
